<svg xmlns="http://www.w3.org/2000/svg" viewBox="0 0 1200 800" role="img" aria-label="Travel destination">
  <defs>
    <linearGradient id="sky" x1="0" y1="0" x2="1" y2="1">
      <stop offset="0" stop-color="#0f766e"/>
      <stop offset="0.55" stop-color="#2563eb"/>
      <stop offset="1" stop-color="#111827"/>
    </linearGradient>
    <linearGradient id="sun" x1="0" y1="0" x2="1" y2="1">
      <stop offset="0" stop-color="#fde68a"/>
      <stop offset="1" stop-color="#f97316"/>
    </linearGradient>
  </defs>
  <rect width="1200" height="800" fill="url(#sky)"/>
  <circle cx="920" cy="180" r="92" fill="url(#sun)" opacity="0.92"/>
  <path d="M0 545 170 375 300 505 440 315 620 535 790 360 1200 625v175H0Z" fill="#082f49" opacity="0.78"/>
  <path d="M0 635c140-45 250-50 365-15 135 40 250 45 385 0 145-48 285-42 450 18v162H0Z" fill="#0f172a" opacity="0.7"/>
  <path d="M160 665h880" stroke="#e0f2fe" stroke-width="14" stroke-linecap="round" opacity="0.55"/>
  <g fill="#fff" opacity="0.9">
    <path d="M605 212c-22-6-45 7-51 29l-24 87-84 31c-12 4-19 18-15 30 4 13 18 19 30 15l94-35c7-3 13-8 15-16l17-62 97 26-45 165c-6 22 7 45 29 51s45-7 51-29l68-249c6-22-7-45-29-51z"/>
    <path d="M526 215c0 30 24 54 54 54s54-24 54-54-24-54-54-54-54 24-54 54z"/>
  </g>
</svg>
